<svg width="184" height="53" viewBox="0 0 184 53" fill="none" xmlns="http://www.w3.org/2000/svg">
<path d="M14.7077 41.4303C11.97 41.4303 9.48301 40.8526 7.24661 39.697C5.04877 38.5414 3.29435 36.8659 1.98336 34.6703C0.710924 32.4748 0.074707 29.8363 0.074707 26.7548V26.0037C0.074707 22.9222 0.710924 20.3029 1.98336 18.1459C3.29435 15.9503 5.04877 14.2748 7.24661 13.1192C9.48301 11.9252 11.97 11.3281 14.7077 11.3281C17.4454 11.3281 19.7782 11.8289 21.7061 12.8303C23.634 13.8318 25.1764 15.1607 26.3331 16.817C27.5284 18.4733 28.2996 20.3029 28.6466 22.3059L22.8628 23.5192C22.6701 22.2481 22.2652 21.0926 21.6483 20.0526C21.0313 19.0126 20.1637 18.1844 19.0455 17.5681C17.9273 16.9518 16.52 16.6437 14.8234 16.6437C13.1654 16.6437 11.6616 17.0289 10.312 17.7992C9.00103 18.5311 7.95994 19.6096 7.18877 21.0348C6.4176 22.4214 6.03201 24.1163 6.03201 26.1192V26.6392C6.03201 28.6422 6.4176 30.3563 7.18877 31.7814C7.95994 33.2066 9.00103 34.2852 10.312 35.017C11.6616 35.7489 13.1654 36.1148 14.8234 36.1148C17.3297 36.1148 19.2383 35.4792 20.5493 34.2081C21.8603 32.8985 22.6893 31.2422 23.0364 29.2392L28.8202 30.5681C28.3574 32.5326 27.5284 34.3429 26.3331 35.9992C25.1764 37.6555 23.634 38.9844 21.7061 39.9859C19.7782 40.9489 17.4454 41.4303 14.7077 41.4303Z" fill="white"/>
<path d="M35.6911 40.6214V12.137H41.6484V40.6214H35.6911ZM38.6987 8.26589C37.5419 8.26589 36.5587 7.89997 35.7489 7.16811C34.9778 6.39774 34.5922 5.41552 34.5922 4.22145C34.5922 3.02737 34.9778 2.06441 35.7489 1.33256C36.5587 0.562188 37.5419 0.177002 38.6987 0.177002C39.894 0.177002 40.8772 0.562188 41.6484 1.33256C42.4196 2.06441 42.8052 3.02737 42.8052 4.22145C42.8052 5.41552 42.4196 6.39774 41.6484 7.16811C40.8772 7.89997 39.894 8.26589 38.6987 8.26589Z" fill="white"/>
<path d="M50.4895 40.6214V12.137H56.3311V16.4126H57.2565C57.7963 15.257 58.7603 14.1785 60.1484 13.177C61.5365 12.1755 63.5994 11.6748 66.3371 11.6748C68.4964 11.6748 70.405 12.1563 72.063 13.1192C73.7596 14.0822 75.0899 15.4496 76.0538 17.2214C77.0178 18.9548 77.4998 21.054 77.4998 23.5192V40.6214H71.5425V23.9814C71.5425 21.5163 70.9256 19.7059 69.6917 18.5503C68.4578 17.3563 66.7612 16.7592 64.6019 16.7592C62.1342 16.7592 60.1484 17.5681 58.6446 19.1859C57.1794 20.8037 56.4468 23.1533 56.4468 26.2348V40.6214H50.4895Z" fill="white"/>
<path d="M99.1447 41.4303C96.2528 41.4303 93.7272 40.8333 91.568 39.6392C89.4087 38.4066 87.7121 36.6926 86.4782 34.497C85.2829 32.2629 84.6852 29.6822 84.6852 26.7548V26.0614C84.6852 23.0955 85.2829 20.5148 86.4782 18.3192C87.6735 16.0852 89.3316 14.3711 91.4523 13.177C93.6116 11.9444 96.0986 11.3281 98.9134 11.3281C101.651 11.3281 104.042 11.9444 106.085 13.177C108.167 14.3711 109.787 16.0466 110.944 18.2037C112.1 20.3607 112.679 22.8837 112.679 25.7726V28.0259H90.7582C90.8353 30.5296 91.6644 32.5326 93.2453 34.0348C94.8647 35.4985 96.8698 36.2303 99.2604 36.2303C101.497 36.2303 103.174 35.7296 104.292 34.7281C105.449 33.7266 106.336 32.5711 106.953 31.2614L111.869 33.8037C111.329 34.8822 110.539 36.0185 109.498 37.2126C108.495 38.4066 107.165 39.4081 105.507 40.217C103.849 41.0259 101.728 41.4303 99.1447 41.4303ZM90.8161 23.4614H106.606C106.452 21.3044 105.68 19.6289 104.292 18.4348C102.904 17.2022 101.092 16.5859 98.8555 16.5859C96.6191 16.5859 94.7876 17.2022 93.3609 18.4348C91.9728 19.6289 91.1245 21.3044 90.8161 23.4614Z" fill="white"/>
<path d="M118.462 26.5237V25.657C118.462 22.6526 119.059 20.0911 120.255 17.9726C121.489 15.854 123.108 14.217 125.113 13.0614C127.118 11.9059 129.316 11.3281 131.707 11.3281C134.483 11.3281 136.604 11.8481 138.069 12.8881C139.573 13.9281 140.671 15.0452 141.365 16.2392H142.291V12.137H148.075V46.457C148.075 48.1903 147.554 49.577 146.513 50.617C145.511 51.657 144.122 52.177 142.349 52.177H123.147V46.977H140.498C141.616 46.977 142.175 46.3992 142.175 45.2437V36.1726H141.25C140.826 36.8659 140.228 37.5785 139.457 38.3103C138.686 39.0422 137.664 39.6392 136.391 40.1014C135.158 40.5637 133.596 40.7948 131.707 40.7948C129.316 40.7948 127.099 40.2363 125.055 39.1192C123.05 37.9637 121.45 36.3266 120.255 34.2081C119.059 32.0511 118.462 29.4896 118.462 26.5237ZM133.326 35.5948C135.909 35.5948 138.03 34.7859 139.688 33.1681C141.385 31.5118 142.233 29.2392 142.233 26.3503V25.8303C142.233 22.8644 141.404 20.5918 139.746 19.0126C138.088 17.3948 135.948 16.5859 133.326 16.5859C130.781 16.5859 128.66 17.3948 126.964 19.0126C125.306 20.5918 124.477 22.8644 124.477 25.8303V26.3503C124.477 29.2392 125.306 31.5118 126.964 33.1681C128.66 34.7859 130.781 35.5948 133.326 35.5948Z" fill="white"/>
<circle cx="168.907" cy="26.3784" r="15.0558" fill="#DB0028"/>
</svg>
